# xmcd
#
# Track frame offsets: 
#        150
#        31388
#        63149
#        91361
#        119747
#        147656
#        169038
#        205987
#        230699
#        263673
#        292568
#        321978
#
# Disc length: 4651 seconds
#
# Revision: 0
# Processed by: cddbd v1.5.2PL0 Copyright (c) Steve Scherf et al.
# Submitted via: ExactAudioCopy v1.0b3
#
DISCID=af12290c
DTITLE=Various Artist - Definition Of Trance Vol. 1 - CD 1
DYEAR=1900
DGENRE=
TTITLE0=Tiesto - Ur (Junkie XL Mix)
TTITLE1=Cosmic Gate - The Drums (Back2Back Mix)
TTITLE2=Three Drives - Evolution
TTITLE3=First State - First State (Edit)
TTITLE4=T4L - Moonwalk (Edit)
TTITLE5=Kenny Hayes - Ibiza Sky (Alex M.O.R.P.H Rmx)
TTITLE6=Mark Norman - Teardrops (Edit)
TTITLE7=Armas - Angels and Demons (Original Mix)
TTITLE8=Sonicvibe - Nostalgia (Edit)
TTITLE9=Wippenberg - Air
TTITLE10=Kay Stone - Alone (Kasuma Rmx Edit)
TTITLE11=Marksun and Brian - Neno Itome (Original Mix Edit)
EXTD=
EXTT0=
EXTT1=
EXTT2=
EXTT3=
EXTT4=
EXTT5=
EXTT6=
EXTT7=
EXTT8=
EXTT9=
EXTT10=
EXTT11=
PLAYORDER=
